<svg width="207" height="198" viewBox="0 0 207 198" fill="none" xmlns="http://www.w3.org/2000/svg">
<rect x="0.5" y="0.5" width="205.667" height="197" rx="3.5" fill="white"/>
<path d="M103.333 75V89" stroke="#8A8A8A" stroke-width="2" stroke-linecap="round" stroke-linejoin="round"/>
<path d="M96.3335 82H110.333" stroke="#8A8A8A" stroke-width="2" stroke-linecap="round" stroke-linejoin="round"/>
<path d="M61.8449 106.636V107.524H59.5649V115H58.4729V107.524H56.1809V106.636H61.8449ZM62.7811 111.688C62.7811 111.016 62.9171 110.428 63.1891 109.924C63.4611 109.412 63.8331 109.016 64.3051 108.736C64.7851 108.456 65.3171 108.316 65.9011 108.316C66.4771 108.316 66.9771 108.44 67.4011 108.688C67.8251 108.936 68.1411 109.248 68.3491 109.624V108.424H69.4531V115H68.3491V113.776C68.1331 114.16 67.8091 114.48 67.3771 114.736C66.9531 114.984 66.4571 115.108 65.8891 115.108C65.3051 115.108 64.7771 114.964 64.3051 114.676C63.8331 114.388 63.4611 113.984 63.1891 113.464C62.9171 112.944 62.7811 112.352 62.7811 111.688ZM68.3491 111.7C68.3491 111.204 68.2491 110.772 68.0491 110.404C67.8491 110.036 67.5771 109.756 67.2331 109.564C66.8971 109.364 66.5251 109.264 66.1171 109.264C65.7091 109.264 65.3371 109.36 65.0011 109.552C64.6651 109.744 64.3971 110.024 64.1971 110.392C63.9971 110.76 63.8971 111.192 63.8971 111.688C63.8971 112.192 63.9971 112.632 64.1971 113.008C64.3971 113.376 64.6651 113.66 65.0011 113.86C65.3371 114.052 65.7091 114.148 66.1171 114.148C66.5251 114.148 66.8971 114.052 67.2331 113.86C67.5771 113.66 67.8491 113.376 68.0491 113.008C68.2491 112.632 68.3491 112.196 68.3491 111.7ZM79.2065 108.304C79.7185 108.304 80.1745 108.412 80.5745 108.628C80.9745 108.836 81.2905 109.152 81.5225 109.576C81.7545 110 81.8705 110.516 81.8705 111.124V115H80.7905V111.28C80.7905 110.624 80.6265 110.124 80.2985 109.78C79.9785 109.428 79.5425 109.252 78.9905 109.252C78.4225 109.252 77.9705 109.436 77.6345 109.804C77.2985 110.164 77.1305 110.688 77.1305 111.376V115H76.0505V111.28C76.0505 110.624 75.8865 110.124 75.5585 109.78C75.2385 109.428 74.8025 109.252 74.2505 109.252C73.6825 109.252 73.2305 109.436 72.8945 109.804C72.5585 110.164 72.3905 110.688 72.3905 111.376V115H71.2985V108.424H72.3905V109.372C72.6065 109.028 72.8945 108.764 73.2545 108.58C73.6225 108.396 74.0265 108.304 74.4665 108.304C75.0185 108.304 75.5065 108.428 75.9305 108.676C76.3545 108.924 76.6705 109.288 76.8785 109.768C77.0625 109.304 77.3665 108.944 77.7905 108.688C78.2145 108.432 78.6865 108.304 79.2065 108.304ZM84.7538 109.648C84.9778 109.256 85.3058 108.936 85.7378 108.688C86.1698 108.44 86.6618 108.316 87.2138 108.316C87.8058 108.316 88.3378 108.456 88.8098 108.736C89.2818 109.016 89.6538 109.412 89.9258 109.924C90.1978 110.428 90.3338 111.016 90.3338 111.688C90.3338 112.352 90.1978 112.944 89.9258 113.464C89.6538 113.984 89.2778 114.388 88.7978 114.676C88.3258 114.964 87.7978 115.108 87.2138 115.108C86.6458 115.108 86.1458 114.984 85.7138 114.736C85.2898 114.488 84.9698 114.172 84.7538 113.788V115H83.6618V106.12H84.7538V109.648ZM89.2178 111.688C89.2178 111.192 89.1178 110.76 88.9178 110.392C88.7178 110.024 88.4458 109.744 88.1018 109.552C87.7658 109.36 87.3938 109.264 86.9858 109.264C86.5858 109.264 86.2138 109.364 85.8698 109.564C85.5338 109.756 85.2618 110.04 85.0538 110.416C84.8538 110.784 84.7538 111.212 84.7538 111.7C84.7538 112.196 84.8538 112.632 85.0538 113.008C85.2618 113.376 85.5338 113.66 85.8698 113.86C86.2138 114.052 86.5858 114.148 86.9858 114.148C87.3938 114.148 87.7658 114.052 88.1018 113.86C88.4458 113.66 88.7178 113.376 88.9178 113.008C89.1178 112.632 89.2178 112.192 89.2178 111.688ZM91.3632 111.688C91.3632 111.016 91.4992 110.428 91.7712 109.924C92.0432 109.412 92.4152 109.016 92.8872 108.736C93.3672 108.456 93.8992 108.316 94.4832 108.316C95.0592 108.316 95.5592 108.44 95.9832 108.688C96.4072 108.936 96.7232 109.248 96.9312 109.624V108.424H98.0352V115H96.9312V113.776C96.7152 114.16 96.3912 114.48 95.9592 114.736C95.5352 114.984 95.0392 115.108 94.4712 115.108C93.8872 115.108 93.3592 114.964 92.8872 114.676C92.4152 114.388 92.0432 113.984 91.7712 113.464C91.4992 112.944 91.3632 112.352 91.3632 111.688ZM96.9312 111.7C96.9312 111.204 96.8312 110.772 96.6312 110.404C96.4312 110.036 96.1592 109.756 95.8152 109.564C95.4792 109.364 95.1072 109.264 94.6992 109.264C94.2912 109.264 93.9192 109.36 93.5832 109.552C93.2472 109.744 92.9792 110.024 92.7792 110.392C92.5792 110.76 92.4792 111.192 92.4792 111.688C92.4792 112.192 92.5792 112.632 92.7792 113.008C92.9792 113.376 93.2472 113.66 93.5832 113.86C93.9192 114.052 94.2912 114.148 94.6992 114.148C95.1072 114.148 95.4792 114.052 95.8152 113.86C96.1592 113.66 96.4312 113.376 96.6312 113.008C96.8312 112.632 96.9312 112.196 96.9312 111.7ZM103.145 108.304C103.641 108.304 104.089 108.412 104.489 108.628C104.889 108.836 105.201 109.152 105.425 109.576C105.657 110 105.773 110.516 105.773 111.124V115H104.693V111.28C104.693 110.624 104.529 110.124 104.201 109.78C103.873 109.428 103.425 109.252 102.857 109.252C102.281 109.252 101.821 109.432 101.477 109.792C101.141 110.152 100.973 110.676 100.973 111.364V115H99.8805V106.12H100.973V109.36C101.189 109.024 101.485 108.764 101.861 108.58C102.245 108.396 102.673 108.304 103.145 108.304ZM116.348 109.084C116.348 109.78 116.108 110.36 115.628 110.824C115.156 111.28 114.432 111.508 113.456 111.508H111.848V115H110.756V106.636H113.456C114.4 106.636 115.116 106.864 115.604 107.32C116.1 107.776 116.348 108.364 116.348 109.084ZM113.456 110.608C114.064 110.608 114.512 110.476 114.8 110.212C115.088 109.948 115.232 109.572 115.232 109.084C115.232 108.052 114.64 107.536 113.456 107.536H111.848V110.608H113.456ZM118.797 109.492C118.989 109.116 119.261 108.824 119.613 108.616C119.973 108.408 120.409 108.304 120.921 108.304V109.432H120.633C119.409 109.432 118.797 110.096 118.797 111.424V115H117.705V108.424H118.797V109.492ZM125.049 115.108C124.433 115.108 123.873 114.968 123.369 114.688C122.873 114.408 122.481 114.012 122.193 113.5C121.913 112.98 121.773 112.38 121.773 111.7C121.773 111.028 121.917 110.436 122.205 109.924C122.501 109.404 122.901 109.008 123.405 108.736C123.909 108.456 124.473 108.316 125.097 108.316C125.721 108.316 126.285 108.456 126.789 108.736C127.293 109.008 127.689 109.4 127.977 109.912C128.273 110.424 128.421 111.02 128.421 111.7C128.421 112.38 128.269 112.98 127.965 113.5C127.669 114.012 127.265 114.408 126.753 114.688C126.241 114.968 125.673 115.108 125.049 115.108ZM125.049 114.148C125.441 114.148 125.809 114.056 126.153 113.872C126.497 113.688 126.773 113.412 126.981 113.044C127.197 112.676 127.305 112.228 127.305 111.7C127.305 111.172 127.201 110.724 126.993 110.356C126.785 109.988 126.513 109.716 126.177 109.54C125.841 109.356 125.477 109.264 125.085 109.264C124.685 109.264 124.317 109.356 123.981 109.54C123.653 109.716 123.389 109.988 123.189 110.356C122.989 110.724 122.889 111.172 122.889 111.7C122.889 112.236 122.985 112.688 123.177 113.056C123.377 113.424 123.641 113.7 123.969 113.884C124.297 114.06 124.657 114.148 125.049 114.148ZM129.449 111.688C129.449 111.016 129.585 110.428 129.857 109.924C130.129 109.412 130.501 109.016 130.973 108.736C131.453 108.456 131.989 108.316 132.581 108.316C133.093 108.316 133.569 108.436 134.009 108.676C134.449 108.908 134.785 109.216 135.017 109.6V106.12H136.121V115H135.017V113.764C134.801 114.156 134.481 114.48 134.057 114.736C133.633 114.984 133.137 115.108 132.569 115.108C131.985 115.108 131.453 114.964 130.973 114.676C130.501 114.388 130.129 113.984 129.857 113.464C129.585 112.944 129.449 112.352 129.449 111.688ZM135.017 111.7C135.017 111.204 134.917 110.772 134.717 110.404C134.517 110.036 134.245 109.756 133.901 109.564C133.565 109.364 133.193 109.264 132.785 109.264C132.377 109.264 132.005 109.36 131.669 109.552C131.333 109.744 131.065 110.024 130.865 110.392C130.665 110.76 130.565 111.192 130.565 111.688C130.565 112.192 130.665 112.632 130.865 113.008C131.065 113.376 131.333 113.66 131.669 113.86C132.005 114.052 132.377 114.148 132.785 114.148C133.193 114.148 133.565 114.052 133.901 113.86C134.245 113.66 134.517 113.376 134.717 113.008C134.917 112.632 135.017 112.196 135.017 111.7ZM143.798 108.424V115H142.706V114.028C142.498 114.364 142.206 114.628 141.83 114.82C141.462 115.004 141.054 115.096 140.606 115.096C140.094 115.096 139.634 114.992 139.226 114.784C138.818 114.568 138.494 114.248 138.254 113.824C138.022 113.4 137.906 112.884 137.906 112.276V108.424H138.986V112.132C138.986 112.78 139.15 113.28 139.478 113.632C139.806 113.976 140.254 114.148 140.822 114.148C141.406 114.148 141.866 113.968 142.202 113.608C142.538 113.248 142.706 112.724 142.706 112.036V108.424H143.798ZM149.314 115L146.734 112.096V115H145.642V106.12H146.734V111.34L149.266 108.424H150.79L147.694 111.7L150.802 115H149.314Z" fill="#8A8A8A"/>
<rect x="0.5" y="0.5" width="205.667" height="197" rx="3.5" stroke="#D0D0D0" stroke-linecap="round" stroke-dasharray="8 8"/>
</svg>
