<svg width="296" height="258" viewBox="0 0 296 258" fill="none" xmlns="http://www.w3.org/2000/svg">
<path d="M234.986 128.419C235.295 128.019 235.512 127.555 235.623 127.062C235.733 126.568 235.733 126.057 235.624 125.563C235.515 125.07 235.299 124.606 234.991 124.204C234.683 123.803 234.291 123.474 233.842 123.241L234.526 115.367L229.838 113.785L229.028 124.918C228.685 125.697 228.641 126.575 228.903 127.385C229.165 128.194 229.716 128.88 230.45 129.312C231.184 129.743 232.051 129.891 232.887 129.726C233.723 129.562 234.47 129.097 234.985 128.42L234.986 128.419Z" fill="#D4C2A8"/>
<path d="M258.379 189.634H254.161L252.153 173.369H258.382L258.379 189.634Z" fill="#D4C2A8"/>
<path d="M251.145 188.429H259.285V193.549H246.021C246.021 192.191 246.56 190.889 247.522 189.928C248.483 188.968 249.786 188.429 251.145 188.429Z" fill="#4B1979"/>
<path d="M248.8 178.842L244.702 179.848L238.867 164.533L244.916 163.048L248.8 178.842Z" fill="#D4C2A8"/>
<path d="M241.545 179.251L249.448 177.307L250.673 182.279L237.793 185.446C237.468 184.127 237.681 182.734 238.385 181.572C239.088 180.41 240.225 179.575 241.545 179.251V179.251Z" fill="#4B1979"/>
<path d="M253.441 184.447C253.056 184.449 252.684 184.307 252.397 184.049C252.111 183.791 251.93 183.437 251.891 183.054L247.035 137.855L242.809 151.677L248.795 173.265C248.898 173.635 248.86 174.03 248.69 174.374C248.519 174.718 248.227 174.987 247.87 175.13L243.111 177.031C242.916 177.109 242.706 177.147 242.495 177.142C242.284 177.137 242.076 177.09 241.884 177.002C241.692 176.915 241.52 176.789 241.378 176.634C241.236 176.478 241.126 176.295 241.057 176.096L233.722 155.07C232.919 152.774 232.564 150.346 232.675 147.917L233.699 125.226L260.664 126.367L260.244 182.507C260.239 182.898 260.088 183.272 259.821 183.558C259.554 183.844 259.189 184.019 258.799 184.051L253.563 184.445C253.522 184.447 253.481 184.447 253.441 184.447Z" fill="#4B1979"/>
<path d="M248.975 75.0086C253.983 75.0086 258.043 70.9529 258.043 65.95C258.043 60.947 253.983 56.8914 248.975 56.8914C243.968 56.8914 239.908 60.947 239.908 65.95C239.908 70.9529 243.968 75.0086 248.975 75.0086Z" fill="#D4C2A8"/>
<path d="M255.643 127.843C253.255 127.843 250.29 127.648 247.22 127.446C243.026 127.17 238.69 126.885 235.452 127.072C235.015 127.116 234.574 127.046 234.171 126.871C233.769 126.696 233.418 126.421 233.152 126.071C229.815 121.803 234.961 105.156 235.182 104.45L239.37 85.8363L239.55 85.8768L239.37 85.8363C240.293 81.7423 243.236 78.7224 247.053 77.9553C250.627 77.2383 254.084 78.6675 256.301 81.7818C256.418 81.947 256.536 82.1166 256.653 82.2904C263.871 92.9704 259.788 119.504 259.515 121.215C259.896 121.672 261.958 124.252 261.391 126.044C261.161 126.773 260.535 127.27 259.53 127.519C258.25 127.772 256.946 127.88 255.642 127.842L255.643 127.843Z" fill="#A06ECE"/>
<path d="M235.598 127.851C234.777 127.851 233.669 127.548 232.175 126.929C231.533 126.662 229.58 125.85 231.952 105.142C233.117 94.9697 234.786 84.8684 234.802 84.7677L234.818 84.6704L234.908 84.6298C234.951 84.6102 239.214 82.6584 239.955 80.1501C239.979 80.0633 240.008 79.9791 240.041 79.8974C240.245 79.3399 240.657 78.8825 241.19 78.6208C241.723 78.3591 242.337 78.3133 242.904 78.493C243.502 78.6358 244.023 79.0007 244.362 79.5136C244.701 80.0265 244.832 80.649 244.728 81.2547C244.47 82.8907 243.974 84.4803 243.255 85.9727C241.249 90.1072 239.89 101.068 239.877 101.178C239.8 102.114 237.98 124.293 237.629 125.976C237.507 126.564 237.282 127.283 236.62 127.632C236.303 127.788 235.952 127.864 235.599 127.853L235.598 127.851Z" fill="#4B1979"/>
<path d="M245.504 127.001C245.338 127.001 245.177 126.946 245.047 126.844C242.379 124.819 246.696 100.27 249.255 91.8004C249.768 90.1038 250.224 88.6518 250.612 87.483C251.319 85.3857 251.812 83.2226 252.085 81.0264C252.226 79.8366 252.532 79.1572 253.021 78.9488C253.361 78.8039 253.76 78.9024 254.21 79.2413C256.575 79.1248 258.874 80.0896 261.003 81.1522L262.92 82.1074L265.071 120.151C265.01 122.579 260.219 124.293 258.13 124.402C254.775 124.578 248.749 125.124 246.095 126.803C245.921 126.924 245.716 126.993 245.504 127.001L245.504 127.001Z" fill="#4B1979"/>
<path d="M233.522 119.863C233.49 119.863 233.459 119.863 233.426 119.86L229.082 119.593C228.866 119.58 228.655 119.522 228.462 119.422C228.269 119.323 228.1 119.185 227.963 119.017C227.827 118.848 227.727 118.653 227.671 118.444C227.614 118.236 227.601 118.017 227.634 117.803L229.6 104.791L233.3 86.5347C233.391 86.085 233.576 85.6594 233.842 85.2856C234.109 84.9118 234.451 84.5981 234.846 84.3648C235.242 84.1315 235.682 83.9839 236.138 83.9314C236.594 83.8789 237.056 83.9228 237.495 84.0603V84.0603C238.244 84.2991 238.883 84.7975 239.296 85.4657C239.71 86.1338 239.871 86.9277 239.75 87.7039L236.81 105.997L235.069 118.518C235.015 118.89 234.83 119.231 234.546 119.478C234.262 119.725 233.898 119.861 233.522 119.863H233.522Z" fill="#4B1979"/>
<path d="M248.363 105.621C248.628 105.19 248.984 104.823 249.407 104.544C249.829 104.266 250.308 104.084 250.808 104.01C251.309 103.936 251.82 103.973 252.304 104.118C252.789 104.263 253.236 104.513 253.614 104.849L260.737 101.411L263.884 105.226L253.757 109.94C253.149 110.536 252.344 110.89 251.493 110.933C250.642 110.976 249.805 110.706 249.14 110.174C248.475 109.641 248.029 108.884 247.885 108.045C247.742 107.206 247.912 106.343 248.363 105.621V105.621Z" fill="#D4C2A8"/>
<path d="M258.258 109.312C257.907 109.312 257.567 109.194 257.291 108.978C257.016 108.761 256.821 108.458 256.739 108.117L255.705 103.82C255.627 103.497 255.653 103.157 255.782 102.85C255.911 102.544 256.135 102.286 256.422 102.117L262.661 98.3856L259.471 86.7183C259.195 85.7192 259.322 84.6518 259.824 83.7447C260.325 82.8376 261.163 82.1629 262.157 81.8649C263.15 81.567 264.221 81.6695 265.14 82.1505C266.059 82.6315 266.753 83.4528 267.073 84.4386L270.595 95.1805C271.028 96.4899 271.031 97.9031 270.605 99.2146C270.178 100.526 269.345 101.668 268.224 102.473L259.172 109.016C258.906 109.209 258.586 109.312 258.258 109.312V109.312Z" fill="#4B1979"/>
<path d="M190.848 0H16.1578C14.5252 0.00195212 12.9601 0.65073 11.8057 1.80402C10.6513 2.95731 10.002 4.52094 10 6.15194V24.9323C10.002 26.5633 10.6513 28.127 11.8057 29.2802C12.9601 30.4335 14.5252 31.0823 16.1578 31.0843H190.848C192.48 31.0823 194.045 30.4335 195.2 29.2802C196.354 28.127 197.003 26.5633 197.005 24.9323V6.15194C197.003 4.52094 196.354 2.95731 195.2 1.80402C194.045 0.65073 192.48 0.00195212 190.848 0ZM196.357 24.9323C196.355 26.3915 195.774 27.7903 194.741 28.8221C193.708 29.8539 192.308 30.4345 190.848 30.4366H16.1578C14.6972 30.4345 13.2971 29.8539 12.2643 28.8221C11.2316 27.7903 10.6504 26.3915 10.6483 24.9323V6.15194C10.6504 4.69277 11.2316 3.29398 12.2643 2.26219C13.2971 1.2304 14.6972 0.649795 16.1578 0.647649H190.848C192.308 0.649795 193.708 1.2304 194.741 2.26219C195.774 3.29398 196.355 4.69277 196.357 6.15194V24.9323Z" fill="#3F3D56"/>
<path d="M190.848 75.4435H16.1578C14.5252 75.4416 12.9601 74.7928 11.8057 73.6395C10.6513 72.4862 10.002 70.9226 10 69.2916V50.5116C10.002 48.8806 10.6513 47.3169 11.8057 46.1636C12.9601 45.0104 14.5252 44.3616 16.1578 44.3596H190.848C192.48 44.3616 194.045 45.0104 195.2 46.1636C196.354 47.3169 197.003 48.8806 197.005 50.5116V69.2916C197.003 70.9226 196.354 72.4862 195.2 73.6395C194.045 74.7928 192.48 75.4416 190.848 75.4435ZM16.1578 45.0073C14.6971 45.0089 13.2967 45.5894 12.2638 46.6213C11.2309 47.6532 10.6499 49.0522 10.6483 50.5116V69.2916C10.6496 70.7511 11.2305 72.1504 12.2634 73.1826C13.2963 74.2147 14.6969 74.7953 16.1578 74.797H190.848C192.308 74.7954 193.709 74.215 194.742 73.1831C195.775 72.1512 196.356 70.7521 196.357 69.2927V50.5116C196.356 49.0522 195.775 47.6532 194.742 46.6213C193.709 45.5894 192.309 45.0089 190.848 45.0073H16.1578Z" fill="#CCCCCC"/>
<path d="M190.848 119.803H16.1578C14.5252 119.801 12.9601 119.152 11.8057 117.999C10.6513 116.846 10.002 115.282 10 113.651V94.8712C10.002 93.2402 10.6513 91.6765 11.8057 90.5233C12.9601 89.37 14.5252 88.7212 16.1578 88.7192H190.848C192.48 88.7212 194.045 89.37 195.2 90.5233C196.354 91.6765 197.003 93.2402 197.005 94.8712V113.651C197.003 115.282 196.354 116.846 195.2 117.999C194.045 119.152 192.48 119.801 190.848 119.803ZM16.1578 89.3654C14.6971 89.3671 13.2967 89.9475 12.2638 90.9794C11.2309 92.0113 10.6499 93.4104 10.6483 94.8697V113.65C10.6498 115.109 11.2308 116.508 12.2637 117.54C13.2966 118.572 14.697 119.153 16.1578 119.154H190.848C192.308 119.153 193.709 118.572 194.742 117.54C195.775 116.509 196.356 115.109 196.357 113.65V94.8712C196.356 93.4115 195.775 92.012 194.742 90.9798C193.709 89.9476 192.309 89.367 190.848 89.3654H16.1578Z" fill="#CCCCCC"/>
<path d="M39.7627 26.2497C37.6429 26.2497 35.5708 25.6217 33.8082 24.4452C32.0457 23.2686 30.672 21.5963 29.8608 19.6397C29.0496 17.6832 28.8373 15.5302 29.2509 13.4531C29.6644 11.3761 30.6852 9.46815 32.1841 7.97067C33.683 6.47318 35.5927 5.45338 37.6718 5.04022C39.7508 4.62707 41.9058 4.83911 43.8642 5.64955C45.8227 6.45998 47.4965 7.8324 48.6742 9.59326C49.8519 11.3541 50.4805 13.4243 50.4805 15.5421C50.4805 18.3819 49.3513 21.1055 47.3413 23.1135C45.3314 25.1216 42.6052 26.2497 39.7627 26.2497Z" fill="#A06ECE"/>
<path d="M175.024 24.2843H60.6173C59.9296 24.2843 59.2701 24.0114 58.7839 23.5256C58.2976 23.0398 58.0244 22.381 58.0244 21.6939C58.0244 21.0069 58.2976 20.348 58.7839 19.8622C59.2701 19.3764 59.9296 19.1035 60.6173 19.1035H175.024C175.711 19.1035 176.371 19.3764 176.857 19.8622C177.343 20.348 177.616 21.0069 177.616 21.6939C177.616 22.381 177.343 23.0398 176.857 23.5256C176.371 24.0114 175.711 24.2843 175.024 24.2843V24.2843Z" fill="#CCCCCC"/>
<path d="M137.75 13.2753H60.6144C59.9267 13.2753 59.2672 13.0024 58.7809 12.5166C58.2947 12.0308 58.0215 11.3719 58.0215 10.6849C58.0215 9.99788 58.2947 9.33899 58.7809 8.8532C59.2672 8.3674 59.9267 8.09448 60.6144 8.09448H137.75C138.437 8.09448 139.097 8.3674 139.583 8.8532C140.069 9.33899 140.343 9.99788 140.343 10.6849C140.343 11.3719 140.069 12.0308 139.583 12.5166C139.097 13.0024 138.437 13.2753 137.75 13.2753V13.2753Z" fill="#CCCCCC"/>
<path d="M39.7627 70.6091C37.6429 70.6091 35.5708 69.9811 33.8082 68.8045C32.0457 67.628 30.672 65.9557 29.8608 63.9991C29.0496 62.0425 28.8373 59.8896 29.2509 57.8125C29.6644 55.7354 30.6852 53.8275 32.1841 52.33C33.683 50.8326 35.5927 49.8128 37.6718 49.3996C39.7508 48.9864 41.9058 49.1985 43.8642 50.0089C45.8227 50.8194 47.4965 52.1918 48.6742 53.9526C49.8519 55.7135 50.4805 57.7837 50.4805 59.9015C50.4805 62.7413 49.3513 65.4648 47.3413 67.4729C45.3314 69.481 42.6052 70.6091 39.7627 70.6091V70.6091Z" fill="#E6E6E6"/>
<path d="M175.024 68.644H60.6173C59.9296 68.644 59.2701 68.3711 58.7839 67.8853C58.2976 67.3995 58.0244 66.7406 58.0244 66.0536C58.0244 65.3665 58.2976 64.7076 58.7839 64.2218C59.2701 63.7361 59.9296 63.4631 60.6173 63.4631H175.024C175.711 63.4631 176.371 63.7361 176.857 64.2218C177.343 64.7076 177.616 65.3665 177.616 66.0536C177.616 66.7406 177.343 67.3995 176.857 67.8853C176.371 68.3711 175.711 68.644 175.024 68.644Z" fill="#E6E6E6"/>
<path d="M137.75 57.6349H60.6144C59.9267 57.6349 59.2672 57.362 58.7809 56.8762C58.2947 56.3904 58.0215 55.7315 58.0215 55.0445C58.0215 54.3575 58.2947 53.6986 58.7809 53.2128C59.2672 52.727 59.9267 52.4541 60.6144 52.4541H137.75C138.437 52.4541 139.097 52.727 139.583 53.2128C140.069 53.6986 140.343 54.3575 140.343 55.0445C140.343 55.7315 140.069 56.3904 139.583 56.8762C139.097 57.362 138.437 57.6349 137.75 57.6349V57.6349Z" fill="#E6E6E6"/>
<path d="M39.7627 114.969C37.6429 114.969 35.5708 114.341 33.8082 113.164C32.0457 111.988 30.672 110.315 29.8608 108.359C29.0496 106.402 28.8373 104.249 29.2509 102.172C29.6644 100.095 30.6852 98.1871 32.1841 96.6897C33.683 95.1922 35.5927 94.1724 37.6718 93.7592C39.7508 93.3461 41.9058 93.5581 43.8642 94.3685C45.8227 95.179 47.4965 96.5514 48.6742 98.3123C49.8519 100.073 50.4805 102.143 50.4805 104.261C50.4805 107.101 49.3513 109.824 47.3413 111.833C45.3314 113.841 42.6052 114.969 39.7627 114.969V114.969Z" fill="#E6E6E6"/>
<path d="M175.024 113.004H60.6173C59.9296 113.004 59.2701 112.731 58.7839 112.245C58.2976 111.759 58.0244 111.1 58.0244 110.413C58.0244 109.726 58.2976 109.067 58.7839 108.581C59.2701 108.096 59.9296 107.823 60.6173 107.823H175.024C175.711 107.823 176.371 108.096 176.857 108.581C177.343 109.067 177.616 109.726 177.616 110.413C177.616 111.1 177.343 111.759 176.857 112.245C176.371 112.731 175.711 113.004 175.024 113.004Z" fill="#E6E6E6"/>
<path d="M137.75 101.995H60.6144C59.9267 101.995 59.2672 101.722 58.7809 101.236C58.2947 100.75 58.0215 100.091 58.0215 99.4041C58.0215 98.7171 58.2947 98.0582 58.7809 97.5724C59.2672 97.0866 59.9267 96.8137 60.6144 96.8137H137.75C138.437 96.8137 139.097 97.0866 139.583 97.5724C140.069 98.0582 140.343 98.7171 140.343 99.4041C140.343 100.091 140.069 100.75 139.583 101.236C139.097 101.722 138.437 101.995 137.75 101.995V101.995Z" fill="#E6E6E6"/>
<path d="M39.2153 19.3085C38.9491 19.3091 38.6899 19.2232 38.4769 19.0636L38.4636 19.0536L35.6856 16.9307C35.5569 16.8322 35.449 16.7093 35.3678 16.569C35.2867 16.4288 35.234 16.274 35.2128 16.1134C35.1916 15.9529 35.2022 15.7897 35.2441 15.6332C35.2859 15.4767 35.3583 15.33 35.4569 15.2015C35.5555 15.073 35.6786 14.9651 35.8189 14.884C35.9593 14.803 36.1143 14.7503 36.275 14.7291C36.4357 14.7079 36.599 14.7185 36.7557 14.7604C36.9123 14.8022 37.0591 14.8745 37.1878 14.973L38.9871 16.3517L43.2389 10.8098C43.438 10.5504 43.7321 10.3806 44.0565 10.3378C44.3809 10.295 44.7091 10.3826 44.9688 10.5815V10.5815L44.9426 10.6183L44.9695 10.5815C45.2289 10.7807 45.3986 11.0746 45.4413 11.3987C45.4841 11.7227 45.3965 12.0505 45.1977 12.3101L40.1965 18.8257C40.0806 18.9756 39.9318 19.0968 39.7615 19.1799C39.5912 19.263 39.4041 19.3059 39.2145 19.3052L39.2153 19.3085Z" fill="white"/>
<path d="M285.631 194H212.535C212.437 194 212.343 193.961 212.274 193.892C212.205 193.823 212.166 193.729 212.166 193.631C212.166 193.533 212.205 193.44 212.274 193.37C212.343 193.301 212.437 193.262 212.535 193.262H285.631C285.729 193.262 285.823 193.301 285.892 193.37C285.961 193.44 286 193.533 286 193.631C286 193.729 285.961 193.823 285.892 193.892C285.823 193.961 285.729 194 285.631 194Z" fill="#CCCCCC"/>
<path d="M252.309 68.3647C252.309 68.3647 251.205 62.2695 248.694 62.9977C246.184 63.726 239.722 64.4711 239.71 61.6005C239.698 58.73 245.792 56.1928 249.385 56.5362C252.979 56.8796 259.088 57.9302 258.752 63.3138C258.483 66.7045 257.434 69.9874 255.687 72.9068L252.309 68.3647Z" fill="#4B1979"/>
<path d="M19.9591 227.974C20.3138 228.03 20.6358 228.175 20.9251 228.408C21.2238 228.641 21.4571 228.931 21.6251 229.276C21.8025 229.621 21.8911 229.99 21.8911 230.382C21.8911 230.877 21.7651 231.325 21.5131 231.726C21.2611 232.118 20.8925 232.431 20.4071 232.664C19.9311 232.888 19.3665 233 18.7131 233H15.0731V223.242H18.5731C19.2358 223.242 19.8005 223.354 20.2671 223.578C20.7338 223.793 21.0838 224.087 21.3171 224.46C21.5505 224.833 21.6671 225.253 21.6671 225.72C21.6671 226.299 21.5085 226.779 21.1911 227.162C20.8831 227.535 20.4725 227.806 19.9591 227.974ZM16.3471 227.456H18.4891C19.0865 227.456 19.5485 227.316 19.8751 227.036C20.2018 226.756 20.3651 226.369 20.3651 225.874C20.3651 225.379 20.2018 224.992 19.8751 224.712C19.5485 224.432 19.0771 224.292 18.4611 224.292H16.3471V227.456ZM18.6011 231.95C19.2358 231.95 19.7305 231.801 20.0851 231.502C20.4398 231.203 20.6171 230.788 20.6171 230.256C20.6171 229.715 20.4305 229.29 20.0571 228.982C19.6838 228.665 19.1845 228.506 18.5591 228.506H16.3471V231.95H18.6011ZM30.6591 228.87C30.6591 229.113 30.6451 229.369 30.6171 229.64H24.4851C24.5317 230.396 24.7884 230.989 25.2551 231.418C25.7311 231.838 26.3051 232.048 26.9771 232.048C27.5277 232.048 27.9851 231.922 28.3491 231.67C28.7224 231.409 28.9837 231.063 29.1331 230.634H30.5051C30.2997 231.371 29.8891 231.973 29.2731 232.44C28.6571 232.897 27.8917 233.126 26.9771 233.126C26.2491 233.126 25.5957 232.963 25.0171 232.636C24.4477 232.309 23.9997 231.847 23.6731 231.25C23.3464 230.643 23.1831 229.943 23.1831 229.15C23.1831 228.357 23.3417 227.661 23.6591 227.064C23.9764 226.467 24.4197 226.009 24.9891 225.692C25.5677 225.365 26.2304 225.202 26.9771 225.202C27.7051 225.202 28.3491 225.361 28.9091 225.678C29.4691 225.995 29.8984 226.434 30.1971 226.994C30.5051 227.545 30.6591 228.17 30.6591 228.87ZM29.3431 228.604C29.3431 228.119 29.2357 227.703 29.0211 227.358C28.8064 227.003 28.5124 226.737 28.1391 226.56C27.7751 226.373 27.3691 226.28 26.9211 226.28C26.2771 226.28 25.7264 226.485 25.2691 226.896C24.8211 227.307 24.5644 227.876 24.4991 228.604H29.3431ZM33.6147 222.64V233H32.3407V222.64H33.6147ZM42.59 225.328V233H41.316V231.866C41.0733 232.258 40.7327 232.566 40.294 232.79C39.8647 233.005 39.3887 233.112 38.866 233.112C38.2687 233.112 37.732 232.991 37.256 232.748C36.78 232.496 36.402 232.123 36.122 231.628C35.8513 231.133 35.716 230.531 35.716 229.822V225.328H36.976V229.654C36.976 230.41 37.1673 230.993 37.55 231.404C37.9327 231.805 38.4553 232.006 39.118 232.006C39.7993 232.006 40.336 231.796 40.728 231.376C41.12 230.956 41.316 230.345 41.316 229.542V225.328H42.59ZM53.9671 225.188C54.5644 225.188 55.0964 225.314 55.5631 225.566C56.0298 225.809 56.3984 226.177 56.6691 226.672C56.9398 227.167 57.0751 227.769 57.0751 228.478V233H55.8151V228.66C55.8151 227.895 55.6238 227.311 55.2411 226.91C54.8678 226.499 54.3591 226.294 53.7151 226.294C53.0524 226.294 52.5251 226.509 52.1331 226.938C51.7411 227.358 51.5451 227.969 51.5451 228.772V233H50.2851V228.66C50.2851 227.895 50.0938 227.311 49.7111 226.91C49.3378 226.499 48.8291 226.294 48.1851 226.294C47.5224 226.294 46.9951 226.509 46.6031 226.938C46.2111 227.358 46.0151 227.969 46.0151 228.772V233H44.7411V225.328H46.0151V226.434C46.2671 226.033 46.6031 225.725 47.0231 225.51C47.4524 225.295 47.9238 225.188 48.4371 225.188C49.0811 225.188 49.6504 225.333 50.1451 225.622C50.6398 225.911 51.0084 226.336 51.2511 226.896C51.4658 226.355 51.8204 225.935 52.3151 225.636C52.8098 225.337 53.3604 225.188 53.9671 225.188ZM62.4213 229.136C62.4213 228.352 62.58 227.666 62.8973 227.078C63.2147 226.481 63.6487 226.019 64.1993 225.692C64.7593 225.365 65.38 225.202 66.0613 225.202C66.7333 225.202 67.3167 225.347 67.8113 225.636C68.306 225.925 68.6747 226.289 68.9173 226.728V225.328H70.2053V233H68.9173V231.572C68.6653 232.02 68.2873 232.393 67.7833 232.692C67.2887 232.981 66.71 233.126 66.0473 233.126C65.366 233.126 64.75 232.958 64.1993 232.622C63.6487 232.286 63.2147 231.815 62.8973 231.208C62.58 230.601 62.4213 229.911 62.4213 229.136ZM68.9173 229.15C68.9173 228.571 68.8007 228.067 68.5673 227.638C68.334 227.209 68.0167 226.882 67.6153 226.658C67.2233 226.425 66.7893 226.308 66.3133 226.308C65.8373 226.308 65.4033 226.42 65.0113 226.644C64.6193 226.868 64.3067 227.195 64.0733 227.624C63.84 228.053 63.7233 228.557 63.7233 229.136C63.7233 229.724 63.84 230.237 64.0733 230.676C64.3067 231.105 64.6193 231.437 65.0113 231.67C65.4033 231.894 65.8373 232.006 66.3133 232.006C66.7893 232.006 67.2233 231.894 67.6153 231.67C68.0167 231.437 68.334 231.105 68.5673 230.676C68.8007 230.237 68.9173 229.729 68.9173 229.15ZM71.8823 229.136C71.8823 228.352 72.0409 227.666 72.3583 227.078C72.6756 226.481 73.1096 226.019 73.6603 225.692C74.2203 225.365 74.8456 225.202 75.5363 225.202C76.1336 225.202 76.6889 225.342 77.2023 225.622C77.7156 225.893 78.1076 226.252 78.3783 226.7V222.64H79.6663V233H78.3783V231.558C78.1263 232.015 77.7529 232.393 77.2583 232.692C76.7636 232.981 76.1849 233.126 75.5223 233.126C74.8409 233.126 74.2203 232.958 73.6603 232.622C73.1096 232.286 72.6756 231.815 72.3583 231.208C72.0409 230.601 71.8823 229.911 71.8823 229.136ZM78.3783 229.15C78.3783 228.571 78.2616 228.067 78.0283 227.638C77.7949 227.209 77.4776 226.882 77.0763 226.658C76.6843 226.425 76.2503 226.308 75.7743 226.308C75.2983 226.308 74.8643 226.42 74.4723 226.644C74.0803 226.868 73.7676 227.195 73.5343 227.624C73.3009 228.053 73.1843 228.557 73.1843 229.136C73.1843 229.724 73.3009 230.237 73.5343 230.676C73.7676 231.105 74.0803 231.437 74.4723 231.67C74.8643 231.894 75.2983 232.006 75.7743 232.006C76.2503 232.006 76.6843 231.894 77.0763 231.67C77.4776 231.437 77.7949 231.105 78.0283 230.676C78.2616 230.237 78.3783 229.729 78.3783 229.15ZM81.3432 229.136C81.3432 228.352 81.5019 227.666 81.8192 227.078C82.1365 226.481 82.5705 226.019 83.1212 225.692C83.6812 225.365 84.3019 225.202 84.9832 225.202C85.6552 225.202 86.2385 225.347 86.7332 225.636C87.2279 225.925 87.5965 226.289 87.8392 226.728V225.328H89.1272V233H87.8392V231.572C87.5872 232.02 87.2092 232.393 86.7052 232.692C86.2105 232.981 85.6319 233.126 84.9692 233.126C84.2879 233.126 83.6719 232.958 83.1212 232.622C82.5705 232.286 82.1365 231.815 81.8192 231.208C81.5019 230.601 81.3432 229.911 81.3432 229.136ZM87.8392 229.15C87.8392 228.571 87.7225 228.067 87.4892 227.638C87.2559 227.209 86.9385 226.882 86.5372 226.658C86.1452 226.425 85.7112 226.308 85.2352 226.308C84.7592 226.308 84.3252 226.42 83.9332 226.644C83.5412 226.868 83.2285 227.195 82.9952 227.624C82.7619 228.053 82.6452 228.557 82.6452 229.136C82.6452 229.724 82.7619 230.237 82.9952 230.676C83.2285 231.105 83.5412 231.437 83.9332 231.67C84.3252 231.894 84.7592 232.006 85.2352 232.006C85.7112 232.006 86.1452 231.894 86.5372 231.67C86.9385 231.437 87.2559 231.105 87.4892 230.676C87.7225 230.237 87.8392 229.729 87.8392 229.15ZM96.2866 226.742C96.5386 226.303 96.9119 225.939 97.4066 225.65C97.9106 225.351 98.4939 225.202 99.1566 225.202C99.8379 225.202 100.454 225.365 101.005 225.692C101.565 226.019 102.003 226.481 102.321 227.078C102.638 227.666 102.797 228.352 102.797 229.136C102.797 229.911 102.638 230.601 102.321 231.208C102.003 231.815 101.565 232.286 101.005 232.622C100.454 232.958 99.8379 233.126 99.1566 233.126C98.5032 233.126 97.9246 232.981 97.4206 232.692C96.9259 232.393 96.5479 232.025 96.2866 231.586V236.64H95.0126V225.328H96.2866V226.742ZM101.495 229.136C101.495 228.557 101.378 228.053 101.145 227.624C100.911 227.195 100.594 226.868 100.193 226.644C99.8006 226.42 99.3666 226.308 98.8906 226.308C98.4239 226.308 97.9899 226.425 97.5886 226.658C97.1966 226.882 96.8792 227.213 96.6366 227.652C96.4032 228.081 96.2866 228.581 96.2866 229.15C96.2866 229.729 96.4032 230.237 96.6366 230.676C96.8792 231.105 97.1966 231.437 97.5886 231.67C97.9899 231.894 98.4239 232.006 98.8906 232.006C99.3666 232.006 99.8006 231.894 100.193 231.67C100.594 231.437 100.911 231.105 101.145 230.676C101.378 230.237 101.495 229.724 101.495 229.136ZM105.748 226.574C105.972 226.135 106.289 225.795 106.7 225.552C107.12 225.309 107.628 225.188 108.226 225.188V226.504H107.89C106.462 226.504 105.748 227.279 105.748 228.828V233H104.474V225.328H105.748V226.574ZM113.042 233.126C112.323 233.126 111.67 232.963 111.082 232.636C110.503 232.309 110.046 231.847 109.71 231.25C109.383 230.643 109.22 229.943 109.22 229.15C109.22 228.366 109.388 227.675 109.724 227.078C110.069 226.471 110.536 226.009 111.124 225.692C111.712 225.365 112.37 225.202 113.098 225.202C113.826 225.202 114.484 225.365 115.072 225.692C115.66 226.009 116.122 226.467 116.458 227.064C116.803 227.661 116.976 228.357 116.976 229.15C116.976 229.943 116.799 230.643 116.444 231.25C116.099 231.847 115.627 232.309 115.03 232.636C114.433 232.963 113.77 233.126 113.042 233.126ZM113.042 232.006C113.499 232.006 113.929 231.899 114.33 231.684C114.731 231.469 115.053 231.147 115.296 230.718C115.548 230.289 115.674 229.766 115.674 229.15C115.674 228.534 115.553 228.011 115.31 227.582C115.067 227.153 114.75 226.835 114.358 226.63C113.966 226.415 113.541 226.308 113.084 226.308C112.617 226.308 112.188 226.415 111.796 226.63C111.413 226.835 111.105 227.153 110.872 227.582C110.639 228.011 110.522 228.534 110.522 229.15C110.522 229.775 110.634 230.303 110.858 230.732C111.091 231.161 111.399 231.483 111.782 231.698C112.165 231.903 112.585 232.006 113.042 232.006ZM118.175 229.136C118.175 228.352 118.334 227.666 118.651 227.078C118.969 226.481 119.403 226.019 119.953 225.692C120.513 225.365 121.139 225.202 121.829 225.202C122.427 225.202 122.982 225.342 123.495 225.622C124.009 225.893 124.401 226.252 124.671 226.7V222.64H125.959V233H124.671V231.558C124.419 232.015 124.046 232.393 123.551 232.692C123.057 232.981 122.478 233.126 121.815 233.126C121.134 233.126 120.513 232.958 119.953 232.622C119.403 232.286 118.969 231.815 118.651 231.208C118.334 230.601 118.175 229.911 118.175 229.136ZM124.671 229.15C124.671 228.571 124.555 228.067 124.321 227.638C124.088 227.209 123.771 226.882 123.369 226.658C122.977 226.425 122.543 226.308 122.067 226.308C121.591 226.308 121.157 226.42 120.765 226.644C120.373 226.868 120.061 227.195 119.827 227.624C119.594 228.053 119.477 228.557 119.477 229.136C119.477 229.724 119.594 230.237 119.827 230.676C120.061 231.105 120.373 231.437 120.765 231.67C121.157 231.894 121.591 232.006 122.067 232.006C122.543 232.006 122.977 231.894 123.369 231.67C123.771 231.437 124.088 231.105 124.321 230.676C124.555 230.237 124.671 229.729 124.671 229.15ZM134.916 225.328V233H133.642V231.866C133.4 232.258 133.059 232.566 132.62 232.79C132.191 233.005 131.715 233.112 131.192 233.112C130.595 233.112 130.058 232.991 129.582 232.748C129.106 232.496 128.728 232.123 128.448 231.628C128.178 231.133 128.042 230.531 128.042 229.822V225.328H129.302V229.654C129.302 230.41 129.494 230.993 129.876 231.404C130.259 231.805 130.782 232.006 131.444 232.006C132.126 232.006 132.662 231.796 133.054 231.376C133.446 230.956 133.642 230.345 133.642 229.542V225.328H134.916ZM141.351 233L138.341 229.612V233H137.067V222.64H138.341V228.73L141.295 225.328H143.073L139.461 229.15L143.087 233H141.351ZM153.498 225.188C154.096 225.188 154.628 225.314 155.094 225.566C155.561 225.809 155.93 226.177 156.2 226.672C156.471 227.167 156.606 227.769 156.606 228.478V233H155.346V228.66C155.346 227.895 155.155 227.311 154.772 226.91C154.399 226.499 153.89 226.294 153.246 226.294C152.584 226.294 152.056 226.509 151.664 226.938C151.272 227.358 151.076 227.969 151.076 228.772V233H149.816V228.66C149.816 227.895 149.625 227.311 149.242 226.91C148.869 226.499 148.36 226.294 147.716 226.294C147.054 226.294 146.526 226.509 146.134 226.938C145.742 227.358 145.546 227.969 145.546 228.772V233H144.272V225.328H145.546V226.434C145.798 226.033 146.134 225.725 146.554 225.51C146.984 225.295 147.455 225.188 147.968 225.188C148.612 225.188 149.182 225.333 149.676 225.622C150.171 225.911 150.54 226.336 150.782 226.896C150.997 226.355 151.352 225.935 151.846 225.636C152.341 225.337 152.892 225.188 153.498 225.188ZM165.5 225.328V233H164.226V231.866C163.983 232.258 163.643 232.566 163.204 232.79C162.775 233.005 162.299 233.112 161.776 233.112C161.179 233.112 160.642 232.991 160.166 232.748C159.69 232.496 159.312 232.123 159.032 231.628C158.761 231.133 158.626 230.531 158.626 229.822V225.328H159.886V229.654C159.886 230.41 160.077 230.993 160.46 231.404C160.843 231.805 161.365 232.006 162.028 232.006C162.709 232.006 163.246 231.796 163.638 231.376C164.03 230.956 164.226 230.345 164.226 229.542V225.328H165.5ZM177.992 225.328L173.372 236.612H172.056L173.568 232.916L170.474 225.328H171.888L174.296 231.544L176.676 225.328H177.992ZM178.796 229.136C178.796 228.352 178.955 227.666 179.272 227.078C179.59 226.481 180.024 226.019 180.574 225.692C181.134 225.365 181.755 225.202 182.436 225.202C183.108 225.202 183.692 225.347 184.186 225.636C184.681 225.925 185.05 226.289 185.292 226.728V225.328H186.58V233H185.292V231.572C185.04 232.02 184.662 232.393 184.158 232.692C183.664 232.981 183.085 233.126 182.422 233.126C181.741 233.126 181.125 232.958 180.574 232.622C180.024 232.286 179.59 231.815 179.272 231.208C178.955 230.601 178.796 229.911 178.796 229.136ZM185.292 229.15C185.292 228.571 185.176 228.067 184.942 227.638C184.709 227.209 184.392 226.882 183.99 226.658C183.598 226.425 183.164 226.308 182.688 226.308C182.212 226.308 181.778 226.42 181.386 226.644C180.994 226.868 180.682 227.195 180.448 227.624C180.215 228.053 180.098 228.557 180.098 229.136C180.098 229.724 180.215 230.237 180.448 230.676C180.682 231.105 180.994 231.437 181.386 231.67C181.778 231.894 182.212 232.006 182.688 232.006C183.164 232.006 183.598 231.894 183.99 231.67C184.392 231.437 184.709 231.105 184.942 230.676C185.176 230.237 185.292 229.729 185.292 229.15ZM192.471 225.188C193.405 225.188 194.161 225.473 194.739 226.042C195.318 226.602 195.607 227.414 195.607 228.478V233H194.347V228.66C194.347 227.895 194.156 227.311 193.773 226.91C193.391 226.499 192.868 226.294 192.205 226.294C191.533 226.294 190.997 226.504 190.595 226.924C190.203 227.344 190.007 227.955 190.007 228.758V233H188.733V225.328H190.007V226.42C190.259 226.028 190.6 225.725 191.029 225.51C191.468 225.295 191.949 225.188 192.471 225.188ZM200.852 225.202C201.515 225.202 202.094 225.347 202.588 225.636C203.092 225.925 203.466 226.289 203.708 226.728V225.328H204.996V233.168C204.996 233.868 204.847 234.489 204.548 235.03C204.25 235.581 203.82 236.01 203.26 236.318C202.71 236.626 202.066 236.78 201.328 236.78C200.32 236.78 199.48 236.542 198.808 236.066C198.136 235.59 197.74 234.941 197.618 234.12H198.878C199.018 234.587 199.308 234.96 199.746 235.24C200.185 235.529 200.712 235.674 201.328 235.674C202.028 235.674 202.598 235.455 203.036 235.016C203.484 234.577 203.708 233.961 203.708 233.168V231.558C203.456 232.006 203.083 232.379 202.588 232.678C202.094 232.977 201.515 233.126 200.852 233.126C200.171 233.126 199.55 232.958 198.99 232.622C198.44 232.286 198.006 231.815 197.688 231.208C197.371 230.601 197.212 229.911 197.212 229.136C197.212 228.352 197.371 227.666 197.688 227.078C198.006 226.481 198.44 226.019 198.99 225.692C199.55 225.365 200.171 225.202 200.852 225.202ZM203.708 229.15C203.708 228.571 203.592 228.067 203.358 227.638C203.125 227.209 202.808 226.882 202.406 226.658C202.014 226.425 201.58 226.308 201.104 226.308C200.628 226.308 200.194 226.42 199.802 226.644C199.41 226.868 199.098 227.195 198.864 227.624C198.631 228.053 198.514 228.557 198.514 229.136C198.514 229.724 198.631 230.237 198.864 230.676C199.098 231.105 199.41 231.437 199.802 231.67C200.194 231.894 200.628 232.006 201.104 232.006C201.58 232.006 202.014 231.894 202.406 231.67C202.808 231.437 203.125 231.105 203.358 230.676C203.592 230.237 203.708 229.729 203.708 229.15ZM212.436 226.378V230.9C212.436 231.273 212.515 231.539 212.674 231.698C212.832 231.847 213.108 231.922 213.5 231.922H214.438V233H213.29C212.58 233 212.048 232.837 211.694 232.51C211.339 232.183 211.162 231.647 211.162 230.9V226.378H210.168V225.328H211.162V223.396H212.436V225.328H214.438V226.378H212.436ZM222.981 228.87C222.981 229.113 222.967 229.369 222.939 229.64H216.807C216.854 230.396 217.111 230.989 217.577 231.418C218.053 231.838 218.627 232.048 219.299 232.048C219.85 232.048 220.307 231.922 220.671 231.67C221.045 231.409 221.306 231.063 221.455 230.634H222.827C222.622 231.371 222.211 231.973 221.595 232.44C220.979 232.897 220.214 233.126 219.299 233.126C218.571 233.126 217.918 232.963 217.339 232.636C216.77 232.309 216.322 231.847 215.995 231.25C215.669 230.643 215.505 229.943 215.505 229.15C215.505 228.357 215.664 227.661 215.981 227.064C216.299 226.467 216.742 226.009 217.311 225.692C217.89 225.365 218.553 225.202 219.299 225.202C220.027 225.202 220.671 225.361 221.231 225.678C221.791 225.995 222.221 226.434 222.519 226.994C222.827 227.545 222.981 228.17 222.981 228.87ZM221.665 228.604C221.665 228.119 221.558 227.703 221.343 227.358C221.129 227.003 220.835 226.737 220.461 226.56C220.097 226.373 219.691 226.28 219.243 226.28C218.599 226.28 218.049 226.485 217.591 226.896C217.143 227.307 216.887 227.876 216.821 228.604H221.665ZM225.937 226.574C226.161 226.135 226.478 225.795 226.889 225.552C227.309 225.309 227.818 225.188 228.415 225.188V226.504H228.079C226.651 226.504 225.937 227.279 225.937 228.828V233H224.663V225.328H225.937V226.574ZM230.572 224.082C230.329 224.082 230.124 223.998 229.956 223.83C229.797 223.662 229.718 223.457 229.718 223.214C229.718 222.971 229.797 222.766 229.956 222.598C230.124 222.43 230.329 222.346 230.572 222.346C230.814 222.346 231.015 222.43 231.174 222.598C231.342 222.766 231.426 222.971 231.426 223.214C231.426 223.457 231.342 223.662 231.174 223.83C231.015 223.998 230.814 224.082 230.572 224.082ZM231.202 234.666C231.202 235.347 231.029 235.847 230.684 236.164C230.338 236.481 229.834 236.64 229.172 236.64H228.43V235.562H228.962C229.316 235.562 229.564 235.492 229.704 235.352C229.853 235.212 229.928 234.974 229.928 234.638V225.328H231.202V234.666ZM240.162 225.328V233H238.888V231.866C238.646 232.258 238.305 232.566 237.866 232.79C237.437 233.005 236.961 233.112 236.438 233.112C235.841 233.112 235.304 232.991 234.828 232.748C234.352 232.496 233.974 232.123 233.694 231.628C233.424 231.133 233.288 230.531 233.288 229.822V225.328H234.548V229.654C234.548 230.41 234.74 230.993 235.122 231.404C235.505 231.805 236.028 232.006 236.69 232.006C237.372 232.006 237.908 231.796 238.3 231.376C238.692 230.956 238.888 230.345 238.888 229.542V225.328H240.162ZM241.837 229.136C241.837 228.352 241.996 227.666 242.313 227.078C242.631 226.481 243.065 226.019 243.615 225.692C244.175 225.365 244.796 225.202 245.477 225.202C246.149 225.202 246.733 225.347 247.227 225.636C247.722 225.925 248.091 226.289 248.333 226.728V225.328H249.621V233H248.333V231.572C248.081 232.02 247.703 232.393 247.199 232.692C246.705 232.981 246.126 233.126 245.463 233.126C244.782 233.126 244.166 232.958 243.615 232.622C243.065 232.286 242.631 231.815 242.313 231.208C241.996 230.601 241.837 229.911 241.837 229.136ZM248.333 229.15C248.333 228.571 248.217 228.067 247.983 227.638C247.75 227.209 247.433 226.882 247.031 226.658C246.639 226.425 246.205 226.308 245.729 226.308C245.253 226.308 244.819 226.42 244.427 226.644C244.035 226.868 243.723 227.195 243.489 227.624C243.256 228.053 243.139 228.557 243.139 229.136C243.139 229.724 243.256 230.237 243.489 230.676C243.723 231.105 244.035 231.437 244.427 231.67C244.819 231.894 245.253 232.006 245.729 232.006C246.205 232.006 246.639 231.894 247.031 231.67C247.433 231.437 247.75 231.105 247.983 230.676C248.217 230.237 248.333 229.729 248.333 229.15ZM253.048 222.64V233H251.774V222.64H253.048ZM262.69 225.188C263.623 225.188 264.379 225.473 264.958 226.042C265.537 226.602 265.826 227.414 265.826 228.478V233H264.566V228.66C264.566 227.895 264.375 227.311 263.992 226.91C263.609 226.499 263.087 226.294 262.424 226.294C261.752 226.294 261.215 226.504 260.814 226.924C260.422 227.344 260.226 227.955 260.226 228.758V233H258.952V225.328H260.226V226.42C260.478 226.028 260.819 225.725 261.248 225.51C261.687 225.295 262.167 225.188 262.69 225.188ZM268.565 224.082C268.322 224.082 268.117 223.998 267.949 223.83C267.781 223.662 267.697 223.457 267.697 223.214C267.697 222.971 267.781 222.766 267.949 222.598C268.117 222.43 268.322 222.346 268.565 222.346C268.798 222.346 268.994 222.43 269.153 222.598C269.321 222.766 269.405 222.971 269.405 223.214C269.405 223.457 269.321 223.662 269.153 223.83C268.994 223.998 268.798 224.082 268.565 224.082ZM269.181 225.328V233H267.907V225.328H269.181ZM275.16 225.188C275.739 225.188 276.262 225.314 276.728 225.566C277.195 225.809 277.559 226.177 277.82 226.672C278.091 227.167 278.226 227.769 278.226 228.478V233H276.966V228.66C276.966 227.895 276.775 227.311 276.392 226.91C276.01 226.499 275.487 226.294 274.824 226.294C274.152 226.294 273.616 226.504 273.214 226.924C272.822 227.344 272.626 227.955 272.626 228.758V233H271.352V222.64H272.626V226.42C272.878 226.028 273.224 225.725 273.662 225.51C274.11 225.295 274.61 225.188 275.16 225.188ZM281.623 231.236L280.055 235.002H279.201L280.223 231.236H281.623ZM31.9258 253.126C31.3378 253.126 30.8105 253.028 30.3438 252.832C29.8772 252.627 29.5085 252.347 29.2378 251.992C28.9672 251.628 28.8178 251.213 28.7898 250.746H30.1058C30.1432 251.129 30.3205 251.441 30.6378 251.684C30.9645 251.927 31.3892 252.048 31.9118 252.048C32.3972 252.048 32.7798 251.941 33.0598 251.726C33.3398 251.511 33.4798 251.241 33.4798 250.914C33.4798 250.578 33.3305 250.331 33.0318 250.172C32.7332 250.004 32.2712 249.841 31.6458 249.682C31.0765 249.533 30.6098 249.383 30.2458 249.234C29.8912 249.075 29.5832 248.847 29.3218 248.548C29.0698 248.24 28.9438 247.839 28.9438 247.344C28.9438 246.952 29.0605 246.593 29.2938 246.266C29.5272 245.939 29.8585 245.683 30.2878 245.496C30.7172 245.3 31.2072 245.202 31.7578 245.202C32.6072 245.202 33.2932 245.417 33.8158 245.846C34.3385 246.275 34.6185 246.863 34.6558 247.61H33.3818C33.3538 247.209 33.1905 246.887 32.8918 246.644C32.6025 246.401 32.2105 246.28 31.7158 246.28C31.2585 246.28 30.8945 246.378 30.6238 246.574C30.3532 246.77 30.2178 247.027 30.2178 247.344C30.2178 247.596 30.2972 247.806 30.4558 247.974C30.6238 248.133 30.8292 248.263 31.0718 248.366C31.3238 248.459 31.6692 248.567 32.1078 248.688C32.6585 248.837 33.1065 248.987 33.4518 249.136C33.7972 249.276 34.0912 249.491 34.3338 249.78C34.5858 250.069 34.7165 250.447 34.7258 250.914C34.7258 251.334 34.6092 251.712 34.3758 252.048C34.1425 252.384 33.8112 252.65 33.3818 252.846C32.9618 253.033 32.4765 253.126 31.9258 253.126ZM36.0483 249.136C36.0483 248.352 36.207 247.666 36.5243 247.078C36.8416 246.481 37.2756 246.019 37.8263 245.692C38.3863 245.365 39.007 245.202 39.6883 245.202C40.3603 245.202 40.9436 245.347 41.4383 245.636C41.933 245.925 42.3016 246.289 42.5443 246.728V245.328H43.8323V253H42.5443V251.572C42.2923 252.02 41.9143 252.393 41.4103 252.692C40.9156 252.981 40.337 253.126 39.6743 253.126C38.993 253.126 38.377 252.958 37.8263 252.622C37.2756 252.286 36.8416 251.815 36.5243 251.208C36.207 250.601 36.0483 249.911 36.0483 249.136ZM42.5443 249.15C42.5443 248.571 42.4276 248.067 42.1943 247.638C41.961 247.209 41.6436 246.882 41.2423 246.658C40.8503 246.425 40.4163 246.308 39.9403 246.308C39.4643 246.308 39.0303 246.42 38.6383 246.644C38.2463 246.868 37.9336 247.195 37.7003 247.624C37.467 248.053 37.3503 248.557 37.3503 249.136C37.3503 249.724 37.467 250.237 37.7003 250.676C37.9336 251.105 38.2463 251.437 38.6383 251.67C39.0303 251.894 39.4643 252.006 39.9403 252.006C40.4163 252.006 40.8503 251.894 41.2423 251.67C41.6436 251.437 41.961 251.105 42.1943 250.676C42.4276 250.237 42.5443 249.729 42.5443 249.15ZM47.2592 246.756C47.5206 246.299 47.9032 245.925 48.4072 245.636C48.9112 245.347 49.4852 245.202 50.1292 245.202C50.8199 245.202 51.4406 245.365 51.9912 245.692C52.5419 246.019 52.9759 246.481 53.2932 247.078C53.6106 247.666 53.7692 248.352 53.7692 249.136C53.7692 249.911 53.6106 250.601 53.2932 251.208C52.9759 251.815 52.5372 252.286 51.9772 252.622C51.4266 252.958 50.8106 253.126 50.1292 253.126C49.4666 253.126 48.8832 252.981 48.3792 252.692C47.8846 252.403 47.5112 252.034 47.2592 251.586V253H45.9852V242.64H47.2592V246.756ZM52.4672 249.136C52.4672 248.557 52.3506 248.053 52.1172 247.624C51.8839 247.195 51.5666 246.868 51.1652 246.644C50.7732 246.42 50.3392 246.308 49.8632 246.308C49.3966 246.308 48.9626 246.425 48.5612 246.658C48.1692 246.882 47.8519 247.213 47.6092 247.652C47.3759 248.081 47.2592 248.581 47.2592 249.15C47.2592 249.729 47.3759 250.237 47.6092 250.676C47.8519 251.105 48.1692 251.437 48.5612 251.67C48.9626 251.894 49.3966 252.006 49.8632 252.006C50.3392 252.006 50.7732 251.894 51.1652 251.67C51.5666 251.437 51.8839 251.105 52.1172 250.676C52.3506 250.237 52.4672 249.724 52.4672 249.136ZM54.9702 249.136C54.9702 248.352 55.1288 247.666 55.4462 247.078C55.7635 246.481 56.1975 246.019 56.7482 245.692C57.3082 245.365 57.9288 245.202 58.6102 245.202C59.2822 245.202 59.8655 245.347 60.3602 245.636C60.8548 245.925 61.2235 246.289 61.4662 246.728V245.328H62.7542V253H61.4662V251.572C61.2142 252.02 60.8362 252.393 60.3322 252.692C59.8375 252.981 59.2588 253.126 58.5962 253.126C57.9148 253.126 57.2988 252.958 56.7482 252.622C56.1975 252.286 55.7635 251.815 55.4462 251.208C55.1288 250.601 54.9702 249.911 54.9702 249.136ZM61.4662 249.15C61.4662 248.571 61.3495 248.067 61.1162 247.638C60.8828 247.209 60.5655 246.882 60.1642 246.658C59.7722 246.425 59.3382 246.308 58.8622 246.308C58.3862 246.308 57.9522 246.42 57.5602 246.644C57.1682 246.868 56.8555 247.195 56.6222 247.624C56.3888 248.053 56.2722 248.557 56.2722 249.136C56.2722 249.724 56.3888 250.237 56.6222 250.676C56.8555 251.105 57.1682 251.437 57.5602 251.67C57.9522 251.894 58.3862 252.006 58.8622 252.006C59.3382 252.006 59.7722 251.894 60.1642 251.67C60.5655 251.437 60.8828 251.105 61.1162 250.676C61.3495 250.237 61.4662 249.729 61.4662 249.15ZM66.1811 246.574C66.4051 246.135 66.7224 245.795 67.1331 245.552C67.5531 245.309 68.0618 245.188 68.6591 245.188V246.504H68.3231C66.8951 246.504 66.1811 247.279 66.1811 248.828V253H64.9071V245.328H66.1811V246.574ZM80.4702 245.328L75.8502 256.612H74.5342L76.0462 252.916L72.9522 245.328H74.3662L76.7742 251.544L79.1542 245.328H80.4702ZM81.2749 249.136C81.2749 248.352 81.4335 247.666 81.7509 247.078C82.0682 246.481 82.5022 246.019 83.0529 245.692C83.6129 245.365 84.2335 245.202 84.9149 245.202C85.5869 245.202 86.1702 245.347 86.6649 245.636C87.1595 245.925 87.5282 246.289 87.7709 246.728V245.328H89.0589V253H87.7709V251.572C87.5189 252.02 87.1409 252.393 86.6369 252.692C86.1422 252.981 85.5635 253.126 84.9009 253.126C84.2195 253.126 83.6035 252.958 83.0529 252.622C82.5022 252.286 82.0682 251.815 81.7509 251.208C81.4335 250.601 81.2749 249.911 81.2749 249.136ZM87.7709 249.15C87.7709 248.571 87.6542 248.067 87.4209 247.638C87.1875 247.209 86.8702 246.882 86.4689 246.658C86.0769 246.425 85.6429 246.308 85.1669 246.308C84.6909 246.308 84.2569 246.42 83.8649 246.644C83.4729 246.868 83.1602 247.195 82.9269 247.624C82.6935 248.053 82.5769 248.557 82.5769 249.136C82.5769 249.724 82.6935 250.237 82.9269 250.676C83.1602 251.105 83.4729 251.437 83.8649 251.67C84.2569 251.894 84.6909 252.006 85.1669 252.006C85.6429 252.006 86.0769 251.894 86.4689 251.67C86.8702 251.437 87.1875 251.105 87.4209 250.676C87.6542 250.237 87.7709 249.729 87.7709 249.15ZM96.2182 246.574C96.4422 246.135 96.7595 245.795 97.1702 245.552C97.5902 245.309 98.0989 245.188 98.6962 245.188V246.504H98.3602C96.9322 246.504 96.2182 247.279 96.2182 248.828V253H94.9442V245.328H96.2182V246.574ZM107.167 248.87C107.167 249.113 107.153 249.369 107.125 249.64H100.993C101.04 250.396 101.296 250.989 101.763 251.418C102.239 251.838 102.813 252.048 103.485 252.048C104.036 252.048 104.493 251.922 104.857 251.67C105.23 251.409 105.492 251.063 105.641 250.634H107.013C106.808 251.371 106.397 251.973 105.781 252.44C105.165 252.897 104.4 253.126 103.485 253.126C102.757 253.126 102.104 252.963 101.525 252.636C100.956 252.309 100.508 251.847 100.181 251.25C99.8542 250.643 99.6909 249.943 99.6909 249.15C99.6909 248.357 99.8495 247.661 100.167 247.064C100.484 246.467 100.928 246.009 101.497 245.692C102.076 245.365 102.738 245.202 103.485 245.202C104.213 245.202 104.857 245.361 105.417 245.678C105.977 245.995 106.406 246.434 106.705 246.994C107.013 247.545 107.167 248.17 107.167 248.87ZM105.851 248.604C105.851 248.119 105.744 247.703 105.529 247.358C105.314 247.003 105.02 246.737 104.647 246.56C104.283 246.373 103.877 246.28 103.429 246.28C102.785 246.28 102.234 246.485 101.777 246.896C101.329 247.307 101.072 247.876 101.007 248.604H105.851ZM109.535 244.082C109.292 244.082 109.087 243.998 108.919 243.83C108.76 243.662 108.681 243.457 108.681 243.214C108.681 242.971 108.76 242.766 108.919 242.598C109.087 242.43 109.292 242.346 109.535 242.346C109.777 242.346 109.978 242.43 110.137 242.598C110.305 242.766 110.389 242.971 110.389 243.214C110.389 243.457 110.305 243.662 110.137 243.83C109.978 243.998 109.777 244.082 109.535 244.082ZM110.165 254.666C110.165 255.347 109.992 255.847 109.647 256.164C109.301 256.481 108.797 256.64 108.135 256.64H107.393V255.562H107.925C108.279 255.562 108.527 255.492 108.667 255.352C108.816 255.212 108.891 254.974 108.891 254.638V245.328H110.165V254.666ZM119.321 248.87C119.321 249.113 119.307 249.369 119.279 249.64H113.147C113.194 250.396 113.45 250.989 113.917 251.418C114.393 251.838 114.967 252.048 115.639 252.048C116.19 252.048 116.647 251.922 117.011 251.67C117.384 251.409 117.646 251.063 117.795 250.634H119.167C118.962 251.371 118.551 251.973 117.935 252.44C117.319 252.897 116.554 253.126 115.639 253.126C114.911 253.126 114.258 252.963 113.679 252.636C113.11 252.309 112.662 251.847 112.335 251.25C112.008 250.643 111.845 249.943 111.845 249.15C111.845 248.357 112.004 247.661 112.321 247.064C112.638 246.467 113.082 246.009 113.651 245.692C114.23 245.365 114.892 245.202 115.639 245.202C116.367 245.202 117.011 245.361 117.571 245.678C118.131 245.995 118.56 246.434 118.859 246.994C119.167 247.545 119.321 248.17 119.321 248.87ZM118.005 248.604C118.005 248.119 117.898 247.703 117.683 247.358C117.468 247.003 117.174 246.737 116.801 246.56C116.437 246.373 116.031 246.28 115.583 246.28C114.939 246.28 114.388 246.485 113.931 246.896C113.483 247.307 113.226 247.876 113.161 248.604H118.005ZM125.287 253L122.277 249.612V253H121.003V242.64H122.277V248.73L125.231 245.328H127.009L123.397 249.15L127.023 253H125.287ZM128.866 244.082C128.623 244.082 128.418 243.998 128.25 243.83C128.082 243.662 127.998 243.457 127.998 243.214C127.998 242.971 128.082 242.766 128.25 242.598C128.418 242.43 128.623 242.346 128.866 242.346C129.099 242.346 129.295 242.43 129.454 242.598C129.622 242.766 129.706 242.971 129.706 243.214C129.706 243.457 129.622 243.662 129.454 243.83C129.295 243.998 129.099 244.082 128.866 244.082ZM129.482 245.328V253H128.208V245.328H129.482ZM139.124 245.188C140.057 245.188 140.813 245.473 141.392 246.042C141.97 246.602 142.26 247.414 142.26 248.478V253H141V248.66C141 247.895 140.808 247.311 140.426 246.91C140.043 246.499 139.52 246.294 138.858 246.294C138.186 246.294 137.649 246.504 137.248 246.924C136.856 247.344 136.66 247.955 136.66 248.758V253H135.386V245.328H136.66V246.42C136.912 246.028 137.252 245.725 137.682 245.51C138.12 245.295 138.601 245.188 139.124 245.188ZM147.505 245.202C148.167 245.202 148.746 245.347 149.241 245.636C149.745 245.925 150.118 246.289 150.361 246.728V245.328H151.649V253.168C151.649 253.868 151.499 254.489 151.201 255.03C150.902 255.581 150.473 256.01 149.913 256.318C149.362 256.626 148.718 256.78 147.981 256.78C146.973 256.78 146.133 256.542 145.461 256.066C144.789 255.59 144.392 254.941 144.271 254.12H145.531C145.671 254.587 145.96 254.96 146.399 255.24C146.837 255.529 147.365 255.674 147.981 255.674C148.681 255.674 149.25 255.455 149.689 255.016C150.137 254.577 150.361 253.961 150.361 253.168V251.558C150.109 252.006 149.735 252.379 149.241 252.678C148.746 252.977 148.167 253.126 147.505 253.126C146.823 253.126 146.203 252.958 145.643 252.622C145.092 252.286 144.658 251.815 144.341 251.208C144.023 250.601 143.865 249.911 143.865 249.136C143.865 248.352 144.023 247.666 144.341 247.078C144.658 246.481 145.092 246.019 145.643 245.692C146.203 245.365 146.823 245.202 147.505 245.202ZM150.361 249.15C150.361 248.571 150.244 248.067 150.011 247.638C149.777 247.209 149.46 246.882 149.059 246.658C148.667 246.425 148.233 246.308 147.757 246.308C147.281 246.308 146.847 246.42 146.455 246.644C146.063 246.868 145.75 247.195 145.517 247.624C145.283 248.053 145.167 248.557 145.167 249.136C145.167 249.724 145.283 250.237 145.517 250.676C145.75 251.105 146.063 251.437 146.455 251.67C146.847 251.894 147.281 252.006 147.757 252.006C148.233 252.006 148.667 251.894 149.059 251.67C149.46 251.437 149.777 251.105 150.011 250.676C150.244 250.237 150.361 249.729 150.361 249.15ZM156.966 245.202C157.628 245.202 158.207 245.347 158.702 245.636C159.206 245.925 159.579 246.289 159.822 246.728V245.328H161.11V253.168C161.11 253.868 160.96 254.489 160.662 255.03C160.363 255.581 159.934 256.01 159.374 256.318C158.823 256.626 158.179 256.78 157.442 256.78C156.434 256.78 155.594 256.542 154.922 256.066C154.25 255.59 153.853 254.941 153.732 254.12H154.992C155.132 254.587 155.421 254.96 155.86 255.24C156.298 255.529 156.826 255.674 157.442 255.674C158.142 255.674 158.711 255.455 159.15 255.016C159.598 254.577 159.822 253.961 159.822 253.168V251.558C159.57 252.006 159.196 252.379 158.702 252.678C158.207 252.977 157.628 253.126 156.966 253.126C156.284 253.126 155.664 252.958 155.104 252.622C154.553 252.286 154.119 251.815 153.802 251.208C153.484 250.601 153.326 249.911 153.326 249.136C153.326 248.352 153.484 247.666 153.802 247.078C154.119 246.481 154.553 246.019 155.104 245.692C155.664 245.365 156.284 245.202 156.966 245.202ZM159.822 249.15C159.822 248.571 159.705 248.067 159.472 247.638C159.238 247.209 158.921 246.882 158.52 246.658C158.128 246.425 157.694 246.308 157.218 246.308C156.742 246.308 156.308 246.42 155.916 246.644C155.524 246.868 155.211 247.195 154.978 247.624C154.744 248.053 154.628 248.557 154.628 249.136C154.628 249.724 154.744 250.237 154.978 250.676C155.211 251.105 155.524 251.437 155.916 251.67C156.308 251.894 156.742 252.006 157.218 252.006C157.694 252.006 158.128 251.894 158.52 251.67C158.921 251.437 159.238 251.105 159.472 250.676C159.705 250.237 159.822 249.729 159.822 249.15ZM162.787 249.136C162.787 248.352 162.945 247.666 163.263 247.078C163.58 246.481 164.014 246.019 164.565 245.692C165.125 245.365 165.745 245.202 166.427 245.202C167.099 245.202 167.682 245.347 168.177 245.636C168.671 245.925 169.04 246.289 169.283 246.728V245.328H170.571V253H169.283V251.572C169.031 252.02 168.653 252.393 168.149 252.692C167.654 252.981 167.075 253.126 166.413 253.126C165.731 253.126 165.115 252.958 164.565 252.622C164.014 252.286 163.58 251.815 163.263 251.208C162.945 250.601 162.787 249.911 162.787 249.136ZM169.283 249.15C169.283 248.571 169.166 248.067 168.933 247.638C168.699 247.209 168.382 246.882 167.981 246.658C167.589 246.425 167.155 246.308 166.679 246.308C166.203 246.308 165.769 246.42 165.377 246.644C164.985 246.868 164.672 247.195 164.439 247.624C164.205 248.053 164.089 248.557 164.089 249.136C164.089 249.724 164.205 250.237 164.439 250.676C164.672 251.105 164.985 251.437 165.377 251.67C165.769 251.894 166.203 252.006 166.679 252.006C167.155 252.006 167.589 251.894 167.981 251.67C168.382 251.437 168.699 251.105 168.933 250.676C169.166 250.237 169.283 249.729 169.283 249.15ZM177.008 253L173.998 249.612V253H172.724V242.64H173.998V248.73L176.952 245.328H178.73L175.118 249.15L178.744 253H177.008ZM187.945 253L184.935 249.612V253H183.661V242.64H184.935V248.73L187.889 245.328H189.667L186.055 249.15L189.681 253H187.945ZM197.866 248.87C197.866 249.113 197.852 249.369 197.824 249.64H191.692C191.739 250.396 191.995 250.989 192.462 251.418C192.938 251.838 193.512 252.048 194.184 252.048C194.735 252.048 195.192 251.922 195.556 251.67C195.929 251.409 196.191 251.063 196.34 250.634H197.712C197.507 251.371 197.096 251.973 196.48 252.44C195.864 252.897 195.099 253.126 194.184 253.126C193.456 253.126 192.803 252.963 192.224 252.636C191.655 252.309 191.207 251.847 190.88 251.25C190.553 250.643 190.39 249.943 190.39 249.15C190.39 248.357 190.549 247.661 190.866 247.064C191.183 246.467 191.627 246.009 192.196 245.692C192.775 245.365 193.437 245.202 194.184 245.202C194.912 245.202 195.556 245.361 196.116 245.678C196.676 245.995 197.105 246.434 197.404 246.994C197.712 247.545 197.866 248.17 197.866 248.87ZM196.55 248.604C196.55 248.119 196.443 247.703 196.228 247.358C196.013 247.003 195.719 246.737 195.346 246.56C194.982 246.373 194.576 246.28 194.128 246.28C193.484 246.28 192.933 246.485 192.476 246.896C192.028 247.307 191.771 247.876 191.706 248.604H196.55ZM208.774 245.188C209.371 245.188 209.903 245.314 210.37 245.566C210.836 245.809 211.205 246.177 211.476 246.672C211.746 247.167 211.882 247.769 211.882 248.478V253H210.622V248.66C210.622 247.895 210.43 247.311 210.048 246.91C209.674 246.499 209.166 246.294 208.522 246.294C207.859 246.294 207.332 246.509 206.94 246.938C206.548 247.358 206.352 247.969 206.352 248.772V253H205.092V248.66C205.092 247.895 204.9 247.311 204.518 246.91C204.144 246.499 203.636 246.294 202.992 246.294C202.329 246.294 201.802 246.509 201.41 246.938C201.018 247.358 200.822 247.969 200.822 248.772V253H199.548V245.328H200.822V246.434C201.074 246.033 201.41 245.725 201.83 245.51C202.259 245.295 202.73 245.188 203.244 245.188C203.888 245.188 204.457 245.333 204.952 245.622C205.446 245.911 205.815 246.336 206.058 246.896C206.272 246.355 206.627 245.935 207.122 245.636C207.616 245.337 208.167 245.188 208.774 245.188ZM213.496 249.136C213.496 248.352 213.654 247.666 213.972 247.078C214.289 246.481 214.723 246.019 215.274 245.692C215.834 245.365 216.454 245.202 217.136 245.202C217.808 245.202 218.391 245.347 218.886 245.636C219.38 245.925 219.749 246.289 219.992 246.728V245.328H221.28V253H219.992V251.572C219.74 252.02 219.362 252.393 218.858 252.692C218.363 252.981 217.784 253.126 217.122 253.126C216.44 253.126 215.824 252.958 215.274 252.622C214.723 252.286 214.289 251.815 213.972 251.208C213.654 250.601 213.496 249.911 213.496 249.136ZM219.992 249.15C219.992 248.571 219.875 248.067 219.642 247.638C219.408 247.209 219.091 246.882 218.69 246.658C218.298 246.425 217.864 246.308 217.388 246.308C216.912 246.308 216.478 246.42 216.086 246.644C215.694 246.868 215.381 247.195 215.148 247.624C214.914 248.053 214.798 248.557 214.798 249.136C214.798 249.724 214.914 250.237 215.148 250.676C215.381 251.105 215.694 251.437 216.086 251.67C216.478 251.894 216.912 252.006 217.388 252.006C217.864 252.006 218.298 251.894 218.69 251.67C219.091 251.437 219.408 251.105 219.642 250.676C219.875 250.237 219.992 249.729 219.992 249.15ZM227.17 245.188C228.104 245.188 228.86 245.473 229.438 246.042C230.017 246.602 230.306 247.414 230.306 248.478V253H229.046V248.66C229.046 247.895 228.855 247.311 228.472 246.91C228.09 246.499 227.567 246.294 226.904 246.294C226.232 246.294 225.696 246.504 225.294 246.924C224.902 247.344 224.706 247.955 224.706 248.758V253H223.432V245.328H224.706V246.42C224.958 246.028 225.299 245.725 225.728 245.51C226.167 245.295 226.648 245.188 227.17 245.188ZM231.912 249.136C231.912 248.352 232.07 247.666 232.388 247.078C232.705 246.481 233.139 246.019 233.69 245.692C234.25 245.365 234.87 245.202 235.552 245.202C236.224 245.202 236.807 245.347 237.302 245.636C237.796 245.925 238.165 246.289 238.408 246.728V245.328H239.696V253H238.408V251.572C238.156 252.02 237.778 252.393 237.274 252.692C236.779 252.981 236.2 253.126 235.538 253.126C234.856 253.126 234.24 252.958 233.69 252.622C233.139 252.286 232.705 251.815 232.388 251.208C232.07 250.601 231.912 249.911 231.912 249.136ZM238.408 249.15C238.408 248.571 238.291 248.067 238.058 247.638C237.824 247.209 237.507 246.882 237.106 246.658C236.714 246.425 236.28 246.308 235.804 246.308C235.328 246.308 234.894 246.42 234.502 246.644C234.11 246.868 233.797 247.195 233.564 247.624C233.33 248.053 233.214 248.557 233.214 249.136C233.214 249.724 233.33 250.237 233.564 250.676C233.797 251.105 234.11 251.437 234.502 251.67C234.894 251.894 235.328 252.006 235.804 252.006C236.28 252.006 236.714 251.894 237.106 251.67C237.507 251.437 237.824 251.105 238.058 250.676C238.291 250.237 238.408 249.729 238.408 249.15ZM249.865 253L246.855 249.612V253H245.581V242.64H246.855V248.73L249.809 245.328H251.587L247.975 249.15L251.601 253H249.865ZM256.132 253.126C255.413 253.126 254.76 252.963 254.172 252.636C253.593 252.309 253.136 251.847 252.8 251.25C252.473 250.643 252.31 249.943 252.31 249.15C252.31 248.366 252.478 247.675 252.814 247.078C253.159 246.471 253.626 246.009 254.214 245.692C254.802 245.365 255.46 245.202 256.188 245.202C256.916 245.202 257.574 245.365 258.162 245.692C258.75 246.009 259.212 246.467 259.548 247.064C259.893 247.661 260.066 248.357 260.066 249.15C260.066 249.943 259.889 250.643 259.534 251.25C259.189 251.847 258.717 252.309 258.12 252.636C257.523 252.963 256.86 253.126 256.132 253.126ZM256.132 252.006C256.589 252.006 257.019 251.899 257.42 251.684C257.821 251.469 258.143 251.147 258.386 250.718C258.638 250.289 258.764 249.766 258.764 249.15C258.764 248.534 258.643 248.011 258.4 247.582C258.157 247.153 257.84 246.835 257.448 246.63C257.056 246.415 256.631 246.308 256.174 246.308C255.707 246.308 255.278 246.415 254.886 246.63C254.503 246.835 254.195 247.153 253.962 247.582C253.729 248.011 253.612 248.534 253.612 249.15C253.612 249.775 253.724 250.303 253.948 250.732C254.181 251.161 254.489 251.483 254.872 251.698C255.255 251.903 255.675 252.006 256.132 252.006ZM266.025 253L263.015 249.612V253H261.741V242.64H263.015V248.73L265.969 245.328H267.747L264.135 249.15L267.761 253H266.025Z" fill="#151515"/>
</svg>
